<svg xmlns="http://www.w3.org/2000/svg" viewBox="0 0 100 100" width="100" height="100">
  <circle cx="50" cy="50" r="46" fill="#FFF4E6"/>
  <!-- Lion/Cat face -->
  <circle cx="50" cy="55" r="28" fill="#FFA94D"/>
  <!-- Ears -->
  <path d="M30 38 L22 20 L40 28 Z" fill="#FF922B"/>
  <path d="M70 38 L78 20 L60 28 Z" fill="#FF922B"/>
  <path d="M30 35 L26 24 L37 29 Z" fill="#FFE8CC"/>
  <path d="M70 35 L74 24 L63 29 Z" fill="#FFE8CC"/>
  <!-- Eyes -->
  <ellipse cx="40" cy="50" rx="4" ry="5" fill="#212529"/>
  <ellipse cx="60" cy="50" rx="4" ry="5" fill="#212529"/>
  <circle cx="41" cy="48" r="1.5" fill="#FFF"/>
  <circle cx="61" cy="48" r="1.5" fill="#FFF"/>
  <!-- Snout & Nose -->
  <ellipse cx="50" cy="62" rx="10" ry="7" fill="#FFE8CC"/>
  <path d="M47 58 L53 58 L50 62 Z" fill="#E8590C"/>
  <path d="M50 62 L50 66 M46 65 Q50 68 54 65" stroke="#212529" stroke-width="2" fill="none"/>
</svg>